# xmcd CD database file
# Copyright (C) 1993-1996 Ti Kan
#
# Track frame offsets:
#	182
#	12257
#	28067
#	42342
#	56897
#	70602
#	83140
#	96755
#	109407
#	121550
#	132662
#	144712
#	154925
#	168085
#	181460
#	194912
#	207745
#	221605
#
# Disc length: 3150 seconds
#
# Revision: 1
# Processed by: cddbd v1.4b41PL1 Copyright (c) Steve Scherf et al.
# Submitted via: xmcd 2.0
#
DISCID=120c4c12
DTITLE=Various Artist - Blues Masters, Volume 12: Memphis Blues
DYEAR=1900
DGENRE=
TTITLE0=Beale Street Sheiks (Stokes and Sane) - Mr. Crump Don't Like It
TTITLE1=Memphis Jug Band - Memphis Jug Blues
TTITLE2=Cannon's Jug Stompers - Viola Lee Blues
TTITLE3=Jim Jackson - Jim Jackson's Kansas City Blues - Part 1
TTITLE4=Furry Lewis - Kassie Jones - Part 2
TTITLE5=Kansas Joe and Memphis Minnie - Bumble Bee
TTITLE6=John Estes - Milk Cow Blues
TTITLE7=Jack Kelly and South Memphis Jug Band - Highway No. 61 Blues
TTITLE8=Joe Hill Louis - We All Gotta Go Sometime
TTITLE9=B. B. King - When Your Baby Packs Up And Goes
TTITLE10=Willie Nix - Try Me One More Time
TTITLE11=Mumbles - Jumpin' Blues
TTITLE12=The Howlin' Wolf - Moanin' At Midnight
TTITLE13=James Cotton - Cotton Crop Blues
TTITLE14=Little Junior's Blue Flames - Feelin' Good
TTITLE15=Rufus ``Hound Dog'' Thomas, Jr. - Bear Cat
TTITLE16=Roscoe Gordon - Booted
TTITLE17=Bobby ``Blue'' Bland with The Beale Streeters - Lovin' Blues
EXTD=
EXTT0=
EXTT1=
EXTT2=
EXTT3=
EXTT4=
EXTT5=
EXTT6=
EXTT7=
EXTT8=
EXTT9=
EXTT10=
EXTT11=
EXTT12=
EXTT13=
EXTT14=
EXTT15=
EXTT16=
EXTT17=
PLAYORDER=
